<svg width="169" height="151" fill="none" xmlns="http://www.w3.org/2000/svg"><g clip-path="url(#clip0_52_1938)"><path d="M67.152.774C32.48 2.521 3.718 30.238.317 65.139c-1.189 12.128 1.024 25.607 5.878 35.956 1.288 2.768 1.981 3.46 3.467 3.46.859 0 2.18-1.351 2.18-2.274 0-.296-.76-2.307-1.684-4.449C-.343 73.05 5.303 44.244 24.423 25.13 38.06 11.485 55.958 4.696 75.573 5.75c11.557.627 23.51 4.614 33.021 11.074 3.203 2.208 3.17 2.01 1.981 6.163-.991 3.428-1.09 10.316-.231 13.809 3.005 11.93 12.152 20.565 24.039 22.608 1.354.231 2.51.462 2.543.528.066.033.33 1.549.594 3.328.529 3.823.595 12.656.132 16.578-2.443 19.477-12.911 36.45-29.289 47.49-2.246 1.516-8.982 5.241-9.445 5.241-.132 0-.23-6.855-.23-15.259v-15.226l1.815-1.978c7.496-8.074 11.393-17.665 11.393-28.211a40.07 40.07 0 00-9.51-25.937l-1.453-1.747.825-1.878c1.156-2.604 1.519-4.087 1.75-7.152.562-7.844-3.599-15.358-10.368-18.72l-2.807-1.384h-3.996c-3.93 0-4.028.033-6.538 1.22-1.42.659-3.302 1.911-4.227 2.768-1.353 1.285-1.75 1.483-2.014 1.088-.165-.231-.297-.627-.297-.824 0-.725-2.344-3.065-3.731-3.724-1.354-.66-1.949-.693-12.813-.693-12.68 0-12.878.033-15.057 2.34-2.014 2.11-2.18 3-2.345 11.008-.165 8.536.231 12.787 1.354 15.094l.793 1.582-1.156 1.384c-2.014 2.44-3.731 5.175-5.383 8.602-5.646 11.799-4.986 25.97 1.718 37.505 1.353 2.34 4.556 6.46 6.042 7.811l.859.791v15.621c0 8.569-.1 15.589-.264 15.589-.43 0-6.67-3.592-9.213-5.306-5.383-3.625-11.987-9.854-15.454-14.567-1.882-2.604-2.939-3.164-4.425-2.406-1.189.626-1.618 1.846-1.056 3.065 1.155 2.505 8.684 10.678 13.241 14.369 3.797 3.065 8.916 6.295 13.241 8.404l3.897 1.879v4.218c.033 3.527.132 4.417.693 5.504.793 1.549 2.08 2.505 3.996 2.933 1.783.429 43.72.462 45.833.066 1.684-.329 2.873-1.153 3.93-2.669.66-.989.726-1.483.726-5.306v-4.219l4.161-2.043c14.463-7.119 25.789-18.39 32.823-32.759 3.269-6.624 5.052-12.128 6.439-19.774 1.024-5.504.991-19.807-.033-23.268-.099-.428.33-.593 2.246-.956 10.632-1.878 19.284-9.162 22.883-19.214 3.831-10.678 1.354-22.245-6.571-30.485-5.581-5.833-12.977-8.997-21.134-8.997-3.896 0-8.387.725-9.675 1.55-1.453.922-1.387 3.492.099 4.152.661.296 1.42.263 3.6-.198 14.331-2.966 27.44 5.603 30.115 19.675.958 5.043.198 10.382-2.179 15.226-3.171 6.427-9.147 11.272-16.148 13.051-3.368.857-8.651.857-12.02 0-4.887-1.252-9.807-4.35-12.977-8.173-4.656-5.603-6.703-13.348-5.316-20.203 1.023-5.042 2.84-8.634 6.406-12.556 1.552-1.714 2.047-2.538 2.047-3.263 0-1.285-1.056-2.307-2.344-2.307-1.189 0-3.864 2.373-5.746 5.108l-1.222 1.747-3.005-1.944C97.895 3.872 83.333-.017 67.152.774zM49.156 27.271v7.449l.825.79c.99.99 2.113 1.055 3.27.132l.858-.659V19.856h4.953v6.888c0 7.086.231 8.668 1.32 9.26.991.528 2.246.396 2.973-.329.627-.626.66-1.087.66-8.239v-7.58h1.651c1.354 0 1.85.165 2.477.824l.825.79v8.866c0 9.03-.132 10.283-1.32 11.832-.33.428-1.75 1.68-3.17 2.801-4.326 3.46-4.756 4.482-4.756 11.37v4.713h-5.944v-3.889c0-4.844-.429-7.415-1.452-8.964-.463-.692-2.048-2.175-3.567-3.362-4.325-3.328-4.226-2.933-4.226-14.072 0-9.195 0-9.393.726-10.15.561-.594 1.057-.759 2.312-.759h1.585v7.415zm41.078-6.756c5.713 2.142 9.378 9.36 8.123 16.15-.627 3.492-1.981 5.898-4.755 8.469-3.863 3.56-3.963 3.856-4.095 10.381l-.132 5.537h-6.208v-5.207c0-4.878-.066-5.306-.825-6.855-.495-.956-1.684-2.406-2.972-3.56-3.368-2.965-4.887-5.899-5.317-10.216-.594-5.998 3.138-12.721 8.223-14.666 2.311-.89 5.58-.89 7.958-.033zM73.129 46.123c.528.692 1.882 2.142 3.005 3.262l2.08 1.978v9.69H64.676v-4.417c0-2.439.132-4.812.297-5.24.198-.462 1.519-1.747 3.005-2.867 1.453-1.088 2.873-2.373 3.17-2.835.297-.428.66-.79.792-.79s.66.56 1.189 1.219zm28.101 6.657c2.179 3.23 3.698 6.69 4.755 10.777.66 2.505.792 3.724.792 8.37 0 4.648-.132 5.867-.759 8.339-1.321 4.977-3.83 10.25-6.241 13.117l-.925 1.088-.165-14.996-.165-14.962-.76-1.088c-.429-.593-1.353-1.351-2.08-1.714l-1.288-.659v-9.69l1.718-1.614 1.684-1.648.825.956c.43.527 1.618 2.208 2.609 3.724zm-54.452-3.23c1.75 1.286 2.047 2.34 2.047 7.449v3.987l-1.023.23c-1.288.298-3.236 2.011-3.798 3.363-.363.824-.462 4.053-.462 15.16v14.105l-1.123-1.582c-2.542-3.559-4.788-8.931-5.844-13.907-.694-3.23-.529-10.678.297-14.073.99-3.988 2.443-7.58 4.226-10.48 1.618-2.637 3.633-5.273 4.062-5.273.132 0 .859.46 1.618 1.021zm46.956 34.605c0 17.138-.033 18.159-.561 17.994-.33-.065-4.128-1.647-8.42-3.493-4.326-1.813-8.157-3.329-8.52-3.329-.925 0-2.312 1.45-2.312 2.406 0 .462.265 1.12.595 1.516.297.396 4.59 2.406 9.807 4.614l9.246 3.889.1 18.753c.065 14.731 0 18.752-.331 18.983-.495.296-43.522.362-44.314.066-.463-.198-.529-2.999-.529-28.508 0-15.556.066-28.31.132-28.31s3.765 1.549 8.255 3.46c4.491 1.912 8.586 3.46 9.114 3.46 1.85 0 3.005-2.603 1.718-3.888-.364-.362-4.789-2.373-9.907-4.548l-9.312-3.922v-8.437c0-4.647.1-8.536.231-8.635.1-.131 10.303-.23 22.62-.23h22.388v18.159z" fill="url(#paint0_linear_52_1938)"/><path d="M138.643 10.86c-.265.098-.76.395-1.057.691-.528.462-.594 1.319-.594 9.096v8.635l-3.468 5.669c-3.797 6.228-4.061 7.118-2.608 8.272 1.089.857 2.146.89 3.038.099.759-.66 7.231-11.206 7.694-12.557.198-.56.297-4.482.231-9.722-.099-8.24-.132-8.8-.76-9.393-.759-.725-1.75-1.055-2.476-.79z" fill="url(#paint1_linear_52_1938)"/></g><defs><linearGradient id="paint0_linear_52_1938" x1="84.489" y1=".674" x2="84.489" y2="150.675" gradientUnits="userSpaceOnUse"><stop stop-color="#A4AB9B"/><stop offset="1" stop-color="#FFA384"/></linearGradient><linearGradient id="paint1_linear_52_1938" x1="135.999" y1="10.769" x2="135.999" y2="43.891" gradientUnits="userSpaceOnUse"><stop stop-color="#A4AB9B"/><stop offset="1" stop-color="#FFA384"/></linearGradient><clipPath id="clip0_52_1938"><path fill="#fff" transform="translate(0 .675)" d="M0 0h168.976v150H0z"/></clipPath></defs></svg>