<svg width="105" height="152" fill="none" xmlns="http://www.w3.org/2000/svg"><g clip-path="url(#clip0_50_1906)"><path d="M46.595 1.09c-5.185.827-11.018 3.218-14.907 6.142-1.797 1.358-2.033 1.653-2.122 2.627-.117 1.3.707 2.303 1.915 2.303.472 0 1.768-.65 3.182-1.623 14.26-9.597 33.469-6.053 43.869 8.12 3.3 4.487 5.774 11.426 5.774 16.239v1.388l-1.826-.59c-1.031-.326-2.033-.65-2.21-.68-.265-.059-.383-.709-.383-1.89 0-.974-.177-2.214-.412-2.746-.383-.974-2.24-2.834-2.917-2.923-.206-.03-3.005-.059-6.246-.059-5.332-.03-6.099-.088-8.102-.738-3.035-.945-5.038-2.008-8.014-4.252-2.828-2.096-4.566-2.746-6.54-2.391-1.562.236-2.504.738-4.714 2.45-3.8 2.953-7.16 4.311-12.256 5.05-3.8.53-5.598 2.39-5.598 5.757 0 1.063-.118 1.683-.353 1.742-.206.03-1.208.354-2.21.68l-1.856.59v-1.3c0-3.808 2.121-10.57 4.596-14.556 1.944-3.189 1.65-5.02-.854-5.02-.943 0-1.208.178-2.004 1.24-1.384 1.92-3.624 6.585-4.507 9.33-1.62 5.139-1.65 5.847-1.65 27.638 0 18.926.059 20.166.56 21.318.648 1.417 2.415 2.982 3.859 3.366.56.177 5.097.295 10.105.295h9.045v4.843c0 3.779-.088 4.9-.412 5.167-.236.206-5.244 1.417-11.137 2.716-12.138 2.657-12.757 2.835-15.998 4.488-1.826.945-2.975 1.83-5.155 4.045-2.387 2.362-3.035 3.248-4.213 5.61-2.475 5.02-2.416 4.311-2.416 24.094v17.45l.884 1.447a7.97 7.97 0 002.327 2.332l1.444.886h94.69l1.443-.886a7.973 7.973 0 002.328-2.332l.884-1.447v-17.45c0-19.783.059-19.074-2.416-24.094-1.179-2.362-1.827-3.248-4.213-5.61-2.18-2.214-3.33-3.1-5.156-4.045-3.24-1.653-3.889-1.83-16.027-4.518-5.922-1.299-10.93-2.539-11.137-2.716-.294-.236-.383-1.506-.383-5.138v-4.842h9.074c5.068 0 9.517-.118 10.106-.295.56-.148 1.59-.768 2.239-1.329 2.269-1.949 2.18-.886 2.092-24.802l-.089-21.26-.795-2.893c-1.06-3.838-2.74-7.588-4.832-10.747-2.121-3.248-6.864-8.002-9.987-10.069-8.014-5.315-17.442-7.5-26.369-6.112zm2.947 23.474c.324.177 1.443.974 2.533 1.8 2.505 1.89 5.863 3.603 9.163 4.607 2.445.768 2.946.797 8.338.827h5.745l.088 11.072c.088 12.283-.059 14.055-1.532 18.011-2.386 6.466-7.248 11.073-14.024 13.346-2.651.886-3.034.945-7.365.945s-4.714-.059-7.366-.945c-8.16-2.716-13.582-8.946-15.202-17.42-.324-1.624-.413-4.931-.413-13.376v-11.19l.678-.119c.354-.059 1.827-.354 3.27-.62 4.45-.797 9.251-3.011 12.522-5.728 1.856-1.535 2.533-1.771 3.565-1.21zm-24.454 19.96v4.901l-.943-.177c-1.06-.207-2.415-1.388-3.093-2.658-.59-1.151-.383-3.779.412-4.842.737-1.004 2.357-2.126 3.065-2.126.53 0 .56.325.56 4.902zm56.89-4.223c1.562 1.063 2.328 2.421 2.328 4.193 0 1.122-.176 1.801-.677 2.54-.766 1.15-2.387 2.332-3.182 2.332-.53 0-.56-.325-.56-4.872s.03-4.872.56-4.872c.294 0 .972.295 1.532.68zM23.38 53.618l1.532.384.383 2.42c.972 6.201 4.39 12.609 8.75 16.418l1.502 1.328h-6.835c-6.482 0-6.894-.03-7.454-.59-.56-.561-.589-.975-.589-10.778 0-9.802 0-10.216.56-9.89.324.147 1.296.472 2.15.708zM84.305 62.8c0 9.803-.03 10.217-.589 10.778-.56.56-.972.59-7.365.59h-6.776l2.15-2.155c4.42-4.459 7.012-9.567 7.984-15.827l.354-2.214 1.444-.325c.824-.177 1.738-.472 2.062-.679.324-.177.619-.354.677-.354.03 0 .06 4.576.06 10.187zM46.802 79.365c2.68.62 8.69.62 11.372 0 1.12-.266 2.121-.473 2.298-.473.147 0 .265 1.95.265 4.636 0 5.226.236 6.466 1.502 7.884l.884 1.003-1.826 7.796c-.972 4.251-1.856 7.854-1.915 7.972-.089.147-3.182.236-6.865.236H45.77l-.324-1.358c-.883-3.484-3.27-14.085-3.27-14.498 0-.236.324-.827.737-1.299 1.09-1.329 1.325-2.657 1.325-7.736 0-2.687.118-4.636.266-4.636.176 0 1.178.207 2.298.473zm-4.037 35.727c2.593 11.22 4.714 20.58 4.714 20.787 0 .442-11.902-17.037-12.61-18.543-.441-.886-.412-1.329.177-5.758 1.002-7.322 1.002-7.352-2.003-12.43-1.12-1.92-2.062-3.573-2.062-3.691 0-.118 1.502-.561 3.329-.945 2.916-.65 3.329-.68 3.506-.266.147.236 2.357 9.626 4.95 20.846zm28.077-20.55c1.473.324 2.888.649 3.094.738.235.088-.089.856-1.002 2.42-3.918 6.615-3.918 6.556-2.946 13.258.795 5.374.766 5.817-.707 8.061-1.031 1.653-1.09 2.332-.265 3.395.884 1.122 2.327 1.063 3.329-.147 2.71-3.219 3.034-4.961 2.092-11.397-.825-5.847-.884-5.551 2.21-10.807 1.178-1.978 2.18-3.632 2.209-3.69.059-.06.678.058 1.444.265l1.355.325-.06 12.578-.088 12.549-1.237.354c-3.093.915-6.305 3.868-7.513 6.88-.648 1.594-.677 2.126-.766 9.861l-.088 8.209h-16.47l2.77-4.075c8.603-12.637 8.72-12.844 8.72-13.818 0-.679-.235-1.122-.765-1.565-1.65-1.299-2.328-.797-5.745 4.281-1.473 2.185-2.74 3.957-2.77 3.898-.058-.059 1.739-8.061 4.007-17.805 2.24-9.743 4.449-19.222 4.861-21.052.53-2.274.884-3.307 1.179-3.307.236 0 1.65.266 3.152.59zm-42.189 5.816c1.355 2.274 2.475 4.518 2.534 5.108.088.561-.148 2.923-.472 5.256-.736 5.108-.766 5.964-.088 7.884.324.856 4.36 7.145 9.752 15.058l9.192 13.582-21.3.089c-14.732.029-21.537-.03-22.068-.266-.442-.148-.943-.59-1.12-.945-.264-.502-.323-4.931-.264-17.332l.088-16.682.795-2.156c1.856-5.078 5.569-9.035 10.489-11.102 2.975-1.27 2.71-2.273 2.71 10.364l-.03 11.161-1.531.886c-1.031.59-1.797 1.358-2.416 2.332-.766 1.3-.884 1.713-.884 3.691 0 2.51.5 3.898 2.033 5.404 2.003 2.007 5.45 2.598 8.131 1.387 1.739-.797 2.564-1.565 3.447-3.366.914-1.771 1.002-4.37.236-6.289-.56-1.358-2.74-3.513-3.889-3.779l-.678-.177V96.963l1.12-.296c.59-.147 1.237-.295 1.444-.325.206-.029 1.443 1.802 2.77 4.016zm61.457-.915c4.066 2.037 7.602 6.112 9.28 10.807.649 1.83.678 2.066.767 18.542.059 12.224 0 16.83-.265 17.303-.442.826-1.473 1.299-2.917 1.299h-1.12l-.118-8.061c-.117-7.411-.176-8.149-.765-9.655-1.297-3.277-4.007-5.964-7.19-7.086l-1.56-.532-.089-12.047-.059-12.017.943.207c.53.088 1.915.679 3.093 1.24zm-31.789 13.759c-.088.207-1.385 5.787-2.887 12.401-1.532 6.614-2.828 11.988-2.887 11.929-.118-.118-5.657-24.005-5.657-24.418 0-.148 2.386-.266 5.774-.266 4.508 0 5.745.088 5.657.354zM22.32 124.806c1.384.561 2.062 2.126 1.59 3.573-.441 1.269-1.296 1.889-2.74 1.889-1.531 0-2.857-1.269-2.857-2.745 0-1.211 1.12-2.746 2.15-2.953.354-.059.678-.148.737-.177.03 0 .53.177 1.12.413zm64.256 2.067c1.856.768 3.064 1.919 3.889 3.661.766 1.624.766 1.772.854 9.272l.089 7.588H76.322l.089-7.913c.088-7.5.117-7.943.736-9.124.766-1.417 2.534-3.012 3.948-3.514 1.414-.531 4.213-.502 5.48.03z" fill="url(#paint0_linear_50_1906)"/><path d="M38.258 41.335c-.383.413-.5 1.151-.5 3.218 0 2.274.087 2.717.588 3.19.825.737 2.24.678 3.035-.119.56-.56.648-.945.648-3.1 0-2.008-.118-2.599-.56-3.1-.736-.798-2.534-.857-3.211-.089z" fill="url(#paint1_linear_50_1906)"/><path d="M63.507 41.423c-.442.502-.56 1.093-.56 3.1 0 2.156.088 2.54.648 3.101.795.797 2.21.856 3.034.118.501-.472.59-.915.59-3.248 0-2.332-.089-2.805-.53-3.189-.796-.708-2.505-.65-3.182.118z" fill="url(#paint2_linear_50_1906)"/><path d="M47.303 60.97c-2.593 2.244 1.414 5.787 6.157 5.463 2.033-.148 3.624-.798 4.92-2.008 1.179-1.093 1.238-2.628.118-3.514-1.031-.827-1.502-.768-3.064.266-1.797 1.18-3.3 1.18-5.038 0-1.561-1.063-2.062-1.093-3.093-.207z" fill="url(#paint3_linear_50_1906)"/></g><defs><linearGradient id="paint0_linear_50_1906" x1="52.488" y1=".682" x2="52.488" y2="151.675" gradientUnits="userSpaceOnUse"><stop stop-color="#A4AB9B"/><stop offset="1" stop-color="#FFA384"/></linearGradient><linearGradient id="paint1_linear_50_1906" x1="39.893" y1="40.791" x2="39.893" y2="48.261" gradientUnits="userSpaceOnUse"><stop stop-color="#A4AB9B"/><stop offset="1" stop-color="#FFA384"/></linearGradient><linearGradient id="paint2_linear_50_1906" x1="65.083" y1="40.809" x2="65.083" y2="48.261" gradientUnits="userSpaceOnUse"><stop stop-color="#A4AB9B"/><stop offset="1" stop-color="#FFA384"/></linearGradient><linearGradient id="paint3_linear_50_1906" x1="52.895" y1="60.34" x2="52.895" y2="66.453" gradientUnits="userSpaceOnUse"><stop stop-color="#A4AB9B"/><stop offset="1" stop-color="#FFA384"/></linearGradient><clipPath id="clip0_50_1906"><path fill="#fff" transform="translate(.488 .683)" d="M0 0h104v150.993H0z"/></clipPath></defs></svg>