<svg width="23" height="23" fill="none" xmlns="http://www.w3.org/2000/svg"><rect x="1.438" y="1.438" width="20.125" height="20.125" rx="10.063" fill="#1275B1"/><path d="M9.07 6.966c0 .672-.583 1.216-1.3 1.216-.719 0-1.301-.544-1.301-1.216 0-.671.582-1.216 1.3-1.216.718 0 1.3.545 1.3 1.216zm-2.423 2.11H8.87v6.736H6.647V9.076zm5.801 0h-2.223v6.736h2.223v-3.446c0-.796.272-1.595 1.356-1.595 1.226 0 1.218 1.041 1.213 1.848-.008 1.055.01 2.131.01 3.194h2.223v-3.556c-.019-2.27-.61-3.316-2.556-3.316-1.156 0-1.872.525-2.246 1v-.865z" fill="#fff"/></svg>