<svg width="32" height="32" fill="none" xmlns="http://www.w3.org/2000/svg"><rect x="2" y="2" width="28" height="28" rx="5" fill="#fff"/><path d="M27.933 2H4.067A2.067 2.067 0 002 4.067v23.866A2.067 2.067 0 004.067 30h23.866A2.067 2.067 0 0030 27.933V4.067A2.067 2.067 0 0027.933 2zM10.346 25.852h-4.21V12.481h4.21v13.371zM8.238 10.627a2.417 2.417 0 112.43-2.415 2.383 2.383 0 01-2.43 2.415zm17.624 15.237h-4.208V18.56c0-2.155-.915-2.82-2.098-2.82-1.248 0-2.473.942-2.473 2.874v7.251h-4.21V12.49h4.049v1.853h.054c.407-.822 1.83-2.228 4.002-2.228 2.349 0 4.886 1.394 4.886 5.478l-.002 8.271z" fill="#0A66C2"/></svg>