<svg width="144" height="153" fill="none" xmlns="http://www.w3.org/2000/svg"><g opacity=".2" clip-path="url(#clip0_77_2972)" fill-rule="evenodd" clip-rule="evenodd"><path opacity=".94" d="M46.906 0h8.367c1.898.6 3.592 1.599 5.08 2.988A13.206 13.206 0 0165.433 0H74.1a12.152 12.152 0 014.93 3.287A11.738 11.738 0 0183.96 0h8.666c4.898 1.718 7.387 5.203 7.471 10.459.762-.43 1.56-.78 2.39-1.046 3.21-.278 6.398-.18 9.563.299 3.992 1.599 6.135 4.54 6.424 8.815a1120.31 1120.31 0 010 36.756c-.257 11.57-4.64 21.232-13.148 28.986a9.33 9.33 0 00-2.092 4.483c-.149 2.686-.2 5.376-.149 8.068 2.716-.442 4.659.553 5.827 2.989l.299 15.837c2.34.945 3.834 2.639 4.482 5.081.2 10.36.2 20.717 0 31.078a6.145 6.145 0 01-1.046 1.195H45.113a4.99 4.99 0 01-.747-1.195 46.056 46.056 0 01.15-8.965c1.156-1.07 2.402-1.169 3.735-.299.675 1.924.926 3.918.747 5.977h60.063c.051-8.965 0-17.93-.149-26.895a2.235 2.235 0 00-1.345-1.345c-19.124-.2-38.25-.2-57.374 0a2.631 2.631 0 00-1.046 1.046c-.098 4.282-.2 8.568-.298 12.85-1.076 2.367-2.57 2.665-4.483.896-.2-4.981-.2-9.96 0-14.941.422-.944.92-1.841 1.494-2.69a12.378 12.378 0 012.69-1.793c.098-5.08.2-10.16.299-15.24.956-2.746 2.898-3.941 5.827-3.586.352-2.677-.296-5.068-1.943-7.172L28.827 65.742a16.479 16.479 0 01-2.988-6.574 114.77 114.77 0 01-.299-15.54c.108-3.696 1.303-6.983 3.586-9.86l10.16-10.16c-.296-2.893.95-4.14 3.736-3.736l1.045 1.046c.2 9.563.2 19.125 0 28.688-.917 1.434-2.163 1.78-3.735 1.045a2.076 2.076 0 01-.747-1.046l-.299-19.124-6.275 6.275a13.506 13.506 0 00-2.39 4.781 78.312 78.312 0 000 16.735 10.816 10.816 0 002.091 4.482L56.618 86.66c2.34 2.983 3.287 6.371 2.839 10.16 7.67-.05 15.338 0 23.01.15 2.061 1.62 1.962 3.114-.3 4.482-9.562.15-19.124.2-28.687.15v13.746h50.8v-13.746c-4.61.14-9.192-.009-13.746-.449-1.258-1.482-1.16-2.874.3-4.183 2.488-.15 4.978-.2 7.47-.15-.051-2.79 0-5.579.15-8.367a14.369 14.369 0 012.987-7.172c7.752-6.903 11.834-15.569 12.252-25.998.2-12.153.2-24.303 0-36.457-.723-3.8-3.012-5.394-6.873-4.781-3.687-.6-5.979.893-6.873 4.482-.098 5.777-.2 11.556-.299 17.332-.75 1.109-1.795 1.459-3.137 1.046-.774-.4-1.222-1.049-1.345-1.942l-.299-26.895c-1.353-2.671-3.547-3.866-6.574-3.586-3.505-.292-5.797 1.202-6.873 4.483-.098 8.965-.2 17.93-.299 26.894-1.284 1.48-2.68 1.578-4.183.3l-.299-.897a667.025 667.025 0 00-.598-27.791c-1.455-2.271-3.547-3.266-6.275-2.989-3.457-.415-5.746.98-6.873 4.184-.098 9.064-.2 18.13-.299 27.193-.776 1.109-1.822 1.459-3.137 1.046a2.235 2.235 0 01-1.345-1.345l-.299-27.193c-1.249-2.943-3.49-4.237-6.723-3.885-5.236.093-7.576 2.783-7.023 8.069-1.637 2.02-3.131 1.918-4.482-.299C38.832 6.18 41.273 2.095 46.906 0zm12.55 129.99c2.499-.164 3.446.93 2.84 3.287-1.294 1.593-2.591 1.593-3.885 0-.4-1.356-.05-2.453 1.046-3.287z" fill="url(#paint0_linear_77_2972)"/><path opacity=".9" d="M134.761 20.62c2.773-.336 3.819.86 3.137 3.585l-.747.747a405.102 405.102 0 01-9.413 4.333c-1.443-.248-2.292-1.097-2.54-2.54a3.11 3.11 0 011.196-2.092 160.693 160.693 0 008.367-4.034z" fill="url(#paint1_linear_77_2972)"/><path opacity=".9" d="M7.462 23.01a5.852 5.852 0 012.988.747 128.78 128.78 0 007.47 3.586c1.202 1.58 1.002 2.976-.597 4.183-.598.2-1.195.2-1.793 0l-8.965-4.183c-1.022-1.77-.723-3.213.897-4.333z" fill="url(#paint2_linear_77_2972)"/><path opacity=".91" d="M131.772 41.537c3.487-.05 6.975 0 10.459.15 2.139 1.192 2.34 2.686.598 4.482-3.885.2-7.77.2-11.655 0-1.27-1.022-1.521-2.268-.747-3.735.422-.383.87-.682 1.345-.897z" fill="url(#paint3_linear_77_2972)"/><path opacity=".91" d="M1.186 44.227c3.885-.051 7.77 0 11.655.149 1.479 1.285 1.577 2.68.298 4.184-.298.098-.597.2-.896.298-3.487.2-6.972.2-10.459 0-2.157-1.246-2.358-2.788-.598-4.631z" fill="url(#paint4_linear_77_2972)"/><path opacity=".9" d="M126.692 58.87a6.366 6.366 0 012.69.447 149.053 149.053 0 008.068 3.885c1.413 2.737.616 4.13-2.391 4.184a99.947 99.947 0 01-9.263-4.632c-.858-1.569-.559-2.863.896-3.885z" fill="url(#paint5_linear_77_2972)"/><path opacity=".91" d="M15.829 61.26c2.797.478 3.493 1.921 2.092 4.333a171.101 171.101 0 01-8.666 4.183c-2.776.484-3.822-.66-3.138-3.436l.747-.747a188.21 188.21 0 008.965-4.333z" fill="url(#paint6_linear_77_2972)"/><path opacity=".92" d="M69.02 82.775c6.574-.05 13.148 0 19.722.15 1.691.547 2.238 1.691 1.643 3.436-.15.547-.499.897-1.046 1.046a354 354 0 01-20.618 0c-1.57-.923-1.868-2.166-.897-3.735.418-.305.819-.604 1.195-.897z" fill="url(#paint7_linear_77_2972)"/><path opacity=".93" d="M58.56 125.209c5.872-.451 8.813 2.238 8.816 8.068-1.088 4.277-3.828 6.219-8.218 5.828-4.527-1.229-6.368-4.166-5.528-8.816.902-2.444 2.546-4.139 4.93-5.08zm.897 4.781c-1.097.834-1.446 1.931-1.046 3.287 1.294 1.593 2.59 1.593 3.885 0 .606-2.357-.34-3.451-2.84-3.287z" fill="url(#paint8_linear_77_2972)"/></g><defs><linearGradient id="paint0_linear_77_2972" x1="72.015" y1="0" x2="72.015" y2="153" gradientUnits="userSpaceOnUse"><stop stop-color="#FFA384"/><stop offset="1" stop-color="#A4AB9B"/></linearGradient><linearGradient id="paint1_linear_77_2972" x1="131.649" y1="20.564" x2="131.649" y2="29.285" gradientUnits="userSpaceOnUse"><stop stop-color="#FFA384"/><stop offset="1" stop-color="#A4AB9B"/></linearGradient><linearGradient id="paint2_linear_77_2972" x1="12.333" y1="23.009" x2="12.333" y2="31.677" gradientUnits="userSpaceOnUse"><stop stop-color="#FFA384"/><stop offset="1" stop-color="#A4AB9B"/></linearGradient><linearGradient id="paint3_linear_77_2972" x1="136.995" y1="41.518" x2="136.995" y2="46.319" gradientUnits="userSpaceOnUse"><stop stop-color="#FFA384"/><stop offset="1" stop-color="#A4AB9B"/></linearGradient><linearGradient id="paint4_linear_77_2972" x1="7.015" y1="44.208" x2="7.015" y2="49.009" gradientUnits="userSpaceOnUse"><stop stop-color="#FFA384"/><stop offset="1" stop-color="#A4AB9B"/></linearGradient><linearGradient id="paint5_linear_77_2972" x1="131.723" y1="58.861" x2="131.723" y2="67.386" gradientUnits="userSpaceOnUse"><stop stop-color="#FFA384"/><stop offset="1" stop-color="#A4AB9B"/></linearGradient><linearGradient id="paint6_linear_77_2972" x1="12.268" y1="61.26" x2="12.268" y2="69.884" gradientUnits="userSpaceOnUse"><stop stop-color="#FFA384"/><stop offset="1" stop-color="#A4AB9B"/></linearGradient><linearGradient id="paint7_linear_77_2972" x1="78.942" y1="82.756" x2="78.942" y2="87.557" gradientUnits="userSpaceOnUse"><stop stop-color="#FFA384"/><stop offset="1" stop-color="#A4AB9B"/></linearGradient><linearGradient id="paint8_linear_77_2972" x1="60.404" y1="125.16" x2="60.404" y2="139.154" gradientUnits="userSpaceOnUse"><stop stop-color="#FFA384"/><stop offset="1" stop-color="#A4AB9B"/></linearGradient><clipPath id="clip0_77_2972"><path fill="#fff" d="M0 0h144v153H0z"/></clipPath></defs></svg>