<svg width="170" height="153" fill="none" xmlns="http://www.w3.org/2000/svg"><g opacity=".2" clip-path="url(#clip0_77_2986)"><path opacity=".93" fill-rule="evenodd" clip-rule="evenodd" d="M170 41.007v11.155c-1.335 9.14-4.931 17.253-10.791 24.338l-11.123 11.324c4.516 4.229 5.565 9.245 3.154 15.043-2.58 4.664-6.508 6.808-11.787 6.422.256 7.008-2.955 11.345-9.629 13.014a16.255 16.255 0 01-3.32.169c.269 6.994-2.939 11.331-9.629 13.015-4.758.676-8.686-.845-11.787-4.564-.442.676-.887 1.352-1.328 2.028a686.879 686.879 0 00-18.428 17.747c-5.913 3.6-11.392 2.978-16.435-1.859-1.853-2.363-2.683-5.067-2.49-8.113-9.145.494-13.793-3.901-13.946-13.183-8.47.054-12.787-4.229-12.95-12.845-8.015.121-12.44-3.877-13.28-12 0-2.867.883-5.402 2.656-7.606a1465.663 1465.663 0 00-18.428-18.93c-5.664-7.028-9.15-15.029-10.459-24V40.669c1.139-8.15 4.127-15.53 8.965-22.141 3.015-1.085 4.4-.017 4.15 3.211-8.643 12.784-10.193 26.42-4.648 40.902a50.024 50.024 0 006.308 10.14 1384.75 1384.75 0 0018.096 18.254c5.04-4.85 10.134-9.64 15.273-14.366 6.422-3.225 11.9-2.042 16.436 3.55a20.08 20.08 0 012.158 7.774c7.654-.044 11.97 3.844 12.95 11.662-.668 1.518-.28 1.914 1.162 1.183 7.258.913 11.19 5.081 11.787 12.508 7.812-.666 12.408 2.94 13.779 10.817a28.575 28.575 0 013.486 3.887c4.685 3.553 8.394 2.708 11.123-2.535.422-2.072.09-3.989-.996-5.747A2529.182 2529.182 0 0185.83 84.613c-.339-3.688 1.156-4.76 4.483-3.211a1261.008 1261.008 0 0034.199 34.817c4.363 1.751 7.517.453 9.463-3.887.421-2.062.089-3.976-.996-5.747l-33.868-34.48c-.963-1.936-.577-3.457 1.162-4.563.821-.24 1.594-.125 2.325.338l33.867 34.48c4.592 2.687 8.078 1.615 10.459-3.212.422-2.062.089-3.975-.996-5.746L126.006 73.12c-.946-3.543.325-4.837 3.818-3.888l14.444 14.705 10.957-11.155c11.421-15.15 12.637-31.15 3.652-48-8.029-12.484-19.431-19.022-34.199-19.607-18.312 1.146-31.038 10.273-38.184 27.381a1087.613 1087.613 0 00-21.914 29.07c-.282 1.045-.116 2.002.498 2.874 3.805 1.91 7.68 2.021 11.621.338a52 52 0 005.977-3.718 736.559 736.559 0 0120.918-16.226c7.676 1.254 15.257.747 22.744-1.521 2.132.504 2.905 1.856 2.324 4.056l-1.162 1.183a63.151 63.151 0 01-15.273 2.705l10.459 10.648c.939 3.55-.332 4.844-3.819 3.887a902.037 902.037 0 00-14.609-14.704 649.543 649.543 0 01-22.246 17.07c-5.681 3.435-11.658 4.11-17.93 2.029-5.203-3.046-6.365-7.272-3.486-12.677a1266.217 1266.217 0 0020.918-27.718c.06-.95-.163-1.853-.664-2.704-8-14.019-20.005-21.345-36.026-21.973-9.546.254-17.96 3.465-25.234 9.634-3.015 1.085-4.4.017-4.15-3.211 5.156-5.135 11.298-8.572 18.427-10.31 18.474-3.945 34.027 1.18 46.65 15.38 1.498 2.154 2.992 4.294 4.483 6.423C97.152 4.236 114.196-3.032 136.133 1.288c16.621 4.864 27.412 15.739 32.373 32.62A417.506 417.506 0 01170 41.007zM53.457 80.219c5.708.354 8.085 3.397 7.139 9.126l-.996 1.69a675.672 675.672 0 01-17.764 17.071c-3.443 1.927-6.485 1.42-9.13-1.521-1.598-2.775-1.485-5.48.331-8.113A611.2 611.2 0 0050.47 81.74a9.358 9.358 0 012.988-1.521zM67.07 93.064c4.227.247 6.66 2.498 7.305 6.76a10.572 10.572 0 01-1.494 4.057l-18.76 17.746c-3.802 1.478-6.733.406-8.799-3.211-.866-2.552-.534-4.918.996-7.099A611.182 611.182 0 0063.75 94.585a21.512 21.512 0 013.32-1.521zm12.95 13.183c4.223.243 6.657 2.498 7.304 6.761a10.561 10.561 0 01-1.494 4.056c-1.66 1.579-3.32 3.154-4.98 4.732-.894 3.543.378 4.838 3.818 3.888a72.535 72.535 0 005.976-5.747c5.622-2.69 9.161-.946 10.626 5.24-.439 2.748-1.767 4.945-3.985 6.591a466.363 466.363 0 00-15.273 14.536c-4.041 2.332-7.305 1.487-9.795-2.536-.867-2.552-.535-4.918.996-7.098a20.186 20.186 0 004.316-4.395c.469-3.245-.803-4.428-3.818-3.549a51.946 51.946 0 01-7.637 6.423c-4.81.672-7.58-1.413-8.3-6.254 0-1.643.5-3.11 1.494-4.394a611.488 611.488 0 0017.431-16.733 13.015 13.015 0 013.32-1.521z" fill="url(#paint0_linear_77_2986)"/></g><defs><linearGradient id="paint0_linear_77_2986" x1="85" y1=".001" x2="85" y2="153.001" gradientUnits="userSpaceOnUse"><stop stop-color="#FFA384"/><stop offset="1" stop-color="#C4CBB9"/></linearGradient><clipPath id="clip0_77_2986"><path fill="#fff" d="M0 0h170v153H0z"/></clipPath></defs></svg>