<svg width="159" height="151" fill="none" xmlns="http://www.w3.org/2000/svg"><g clip-path="url(#clip0_52_1941)"><path d="M123.022 1.047c-2.781.618-4.852 1.329-6.984 2.411-2.534 1.237-17.8 10.078-18.45 10.666-.772.649-.71 2.38.062 3.153.34.34 1.02.618 1.514.618.588 0 3.894-1.73 9.766-5.132 4.914-2.813 9.55-5.41 10.322-5.75 4.296-1.824 10.631-2.318 15.39-1.175 4.852 1.175 8.715 3.37 12.146 6.987 2.441 2.566 3.028 3.37 4.45 6.183 1.885 3.772 2.472 6.492 2.472 11.099-.031 3.771-.123 4.482-1.761 11.593-1.638 6.956-7.974 31.286-9.055 34.687-.278.834-.866 1.793-1.391 2.256-2.41 2.01-6.922-.061-8.808-4.019-1.081-2.318-.989-4.451.495-9.954.68-2.504 1.236-4.823 1.236-5.132 0-.773-1.391-2.071-2.225-2.071-.402 0-4.914 2.442-10.075 5.41l-9.364 5.44-1.792-.37c-1.731-.34-3.678-.062-5.656.804-.525.216-.556-.062-.556-3.03v-3.246l5.996-3.432c4.635-2.69 6.057-3.648 6.335-4.297.68-1.608-.464-3.184-2.194-3.122-.402 0-3.153 1.422-6.119 3.184l-5.409 3.184-1.421-1.33c-2.627-2.41-5.841-3.122-8.993-2.07-1.144.401-1.793.494-1.793.278 0-.186 4.11-2.69 9.148-5.596 5.006-2.875 9.364-5.503 9.611-5.812.68-.711.649-2.226-.062-2.999-1.112-1.236-2.008-.896-11.558 4.638-5.006 2.906-9.178 5.255-9.302 5.255-.123 0-.463-.278-.803-.65-.31-.37-1.267-1.02-2.133-1.452-1.298-.68-1.947-.835-4.017-.835-2.07 0-2.72.155-4.049.835-1.823.958-3.492 2.69-4.172 4.42-.278.68-.649 1.516-.772 1.887-.248.618-.34.618-1.33.216-1.02-.433-1.02-.464-.895-1.979.123-1.267.37-1.762 1.205-2.596.587-.526 7.664-4.792 15.73-9.43 8.066-4.637 14.927-8.656 15.236-8.903.741-.65.71-2.597-.093-3.308-.34-.31-1.02-.556-1.483-.556-.526 0-4.358 2.04-10.353 5.502l-9.519 5.472-1.669-.123c-1.916-.155-3.028-.959-3.739-2.628-.587-1.36-.525-2.38.185-3.772.526-1.082 1.391-1.67 7.48-5.163 3.8-2.194 7.2-4.297 7.602-4.668.37-.37.68-1.05.68-1.484 0-.989-1.268-2.318-2.226-2.318-.71 0-13.474 7.203-15.483 8.749-.587.463-1.39 1.36-1.792 1.978-.37.65-.742 1.237-.773 1.299-.061.062-2.688-1.392-5.871-3.246l-5.78-3.34 2.597-.803c3.12-.99 4.573-1.855 6.551-3.988 4.852-5.194 4.698-13.88-.309-17.034C67.364 1.387 65.85.892 64.305.892c-.804 0-12.578 2.968-16.812 4.204-.31.093-.773.619-1.05 1.175-.402.897-.433 1.144-.063 1.917.835 1.7 1.36 1.638 9.89-.618 5.531-1.484 8.097-2.04 8.776-1.917 3.74.711 4.358 6.77 1.051 10.511-1.7 1.917-2.627 2.35-8.313 3.864-2.905.773-5.037 1.515-5.377 1.886-.711.711-.773 2.319-.124 2.968.247.278 4.605 2.875 9.673 5.781l9.21 5.318.37 1.329c.433 1.453 1.638 3.215 3.029 4.42l.927.774-2.596 1.515c-1.421.834-2.75 1.483-2.936 1.483-.185 0-2.905-1.483-6.057-3.277-3.368-1.947-6.057-3.307-6.52-3.307-1.886 0-2.813 2.627-1.36 3.926.37.34 2.935 1.916 5.717 3.493 4.45 2.535 5.037 2.968 4.852 3.524-.093.372-.278 1.515-.371 2.597l-.186 1.917-1.421.65c-.773.34-1.7.896-2.04 1.205-.649.587-.68.587-6.026-2.473-2.967-1.7-5.687-3.092-6.026-3.092-.773 0-1.886.959-2.164 1.824-.401 1.33.556 2.195 5.872 5.256l5.192 3.03-.062 5.07c-.03 2.782-.093 5.1-.123 5.132-.062.03-3.307-1.825-7.232-4.081-3.956-2.288-7.51-4.236-7.942-4.36-1.175-.278-2.813 1.392-2.504 2.598.124.463.34.989.495 1.174.154.217 4.11 2.566 8.777 5.256l8.498 4.885v4.42c0 4.112-.03 4.39-.618 4.576-1.081.34-2.627-.402-11.249-5.41-4.605-2.66-13.041-7.513-18.728-10.79-5.686-3.277-11.033-6.4-11.898-6.956-5.006-3.153-8.653-7.697-10.476-13.108-4.11-12.118 1.421-25.32 12.887-30.667 1.112-.526 5.84-2.133 10.507-3.556 4.698-1.422 8.808-2.72 9.148-2.937 1.36-.71 1.174-3.215-.34-3.957-.711-.34-1.762-.092-9.859 2.38-5.006 1.546-9.92 3.154-10.94 3.587-6.613 2.937-12.67 9.305-15.42 16.261C.858 34.126.487 36.26.487 41.082c0 3.895.093 4.884.834 7.481C3.207 55.52 7.503 61.61 13.128 65.412 15.476 66.988 52.87 88.598 54.57 89.34c.68.31 2.04.65 2.998.773 1.607.185 1.761.278 1.761.958 0 2.504 3.276 3.401 4.296 1.144.247-.525.34-5.225.34-15.55V61.887l.71-1.05c1.948-2.938 6.274-2.66 7.758.463.432.928.494 3.06.494 18.89 0 10.82.124 18.023.309 18.363.154.309.68.742 1.205.927.742.31 1.051.31 1.824-.093.494-.247.989-.71 1.112-.958.093-.278.186-10.078.186-21.733 0-19.6.03-21.332.556-22.29 1.545-3.091 5.748-3.277 7.695-.371l.71 1.051v21.27c0 15.148.094 21.486.34 22.042.712 1.577 3.184 1.701 3.956.217.248-.402.34-6.43.34-18.302 0-17.25.031-17.745.65-19.013 1.483-3.091 5.748-3.37 7.602-.525.525.772.556 2.318.711 19.198l.154 18.363.896.773c.958.835 2.04.773 3.06-.123.494-.464.525-1.392.525-11.192 0-5.874.155-11.222.278-11.902.866-3.679 5.47-4.637 7.881-1.638l.958 1.205.093 22.29c.092 23.155-.031 27.143-1.144 30.668-2.132 6.863-6.552 12.088-12.856 15.241-3.832 1.917-6.026 2.38-11.125 2.38-3.987 0-4.945-.092-6.954-.711-2.874-.896-6.026-2.535-8.282-4.297-2.503-1.948-32.171-30.946-32.697-31.966-1.02-2.01-.123-4.081 2.473-5.688 1.39-.835 1.761-.928 4.172-.928 2.008 0 2.967.155 3.894.618.68.31 3.06 2.381 5.284 4.545 4.358 4.204 4.914 4.513 6.336 3.37.71-.557.741-.804.834-5.04.093-4.142.062-4.482-.556-5.286-.495-.618-.927-.835-1.73-.835-1.453 0-2.288.897-2.288 2.504v1.268l-2.07-1.917c-1.206-1.144-2.905-2.35-4.08-2.906-1.885-.896-2.287-.958-5.439-.958s-3.523.062-5.47.99c-2.41 1.112-4.666 3.091-5.594 4.884-.958 1.762-.958 5.657 0 7.45.588 1.113 16.843 17.282 29.792 29.679 4.388 4.235 7.664 6.492 11.187 7.883 4.605 1.762 5.841 1.979 11.342 1.979 4.358 0 5.44-.124 7.54-.711 11.188-3.216 19.254-11.965 21.541-23.403.34-1.762.432-6.894.432-26.896V74.934l-.865-1.855c-.463-1.02-.742-1.886-.618-1.917.155-.062 2.689-1.515 5.625-3.215 2.935-1.7 5.408-3.06 5.47-2.968.092.093-.062 1.02-.34 2.102-.371 1.391-.495 2.813-.402 4.792.093 2.411.247 3.091 1.143 4.885 2.782 5.657 9.302 8.749 13.969 6.616 1.731-.804 3.43-2.288 4.141-3.68 1.144-2.133 10.168-37.561 11.435-44.765 1.452-8.285-.897-17.003-6.459-23.804-3.616-4.421-8.684-7.729-14.618-9.491-2.287-.68-3.43-.835-7.355-.927-3.276-.093-5.223.03-6.614.34z" fill="url(#paint0_linear_52_1941)"/></g><defs><linearGradient id="paint0_linear_52_1941" x1="79.488" y1=".676" x2="79.488" y2="150.676" gradientUnits="userSpaceOnUse"><stop stop-color="#A4AB9B"/><stop offset="1" stop-color="#FFA384"/></linearGradient><clipPath id="clip0_52_1941"><path fill="#fff" transform="translate(.488 .675)" d="M0 0h158v150H0z"/></clipPath></defs></svg>