<svg width="114" height="151" fill="none" xmlns="http://www.w3.org/2000/svg"><g clip-path="url(#clip0_52_1943)"><path d="M52.044.88C35.535 3.14 22.028 14.547 17.055 30.412c-1.589 5.074-1.677 6.13-1.942 22.786-.118 8.534-.383 16.862-.589 18.475C13.26 82.7 11.464 91.35 8.521 100.5c-.735 2.288-1.353 4.575-1.353 5.103 0 2.903 2.324 5.836 5.444 6.803 3.59 1.115 3.56.998.5 2.083-1.5.527-3.355 1.349-4.12 1.788-2.119 1.232-4.797 4.106-6.032 6.481-1.796 3.461-1.972 4.751-1.972 16.305v10.206l.736.703c.912.939 2.03.939 2.942 0l.736-.703V139.21c0-8.123.088-10.411.441-11.818.854-3.285 3.06-6.1 5.886-7.537 1.118-.586 12.3-4.633 12.771-4.633.118 0 .942 1.085 1.795 2.375 8.622 13.05 25.13 19.355 40.462 15.484 4.885-1.232 6.298-2.375 5.386-4.282-.648-1.349-1.59-1.466-4.65-.557-5.15 1.584-9.74 1.965-14.713 1.232-9.211-1.408-17.863-6.774-22.66-14.047l-1.176-1.789 2.265-.821c1.237-.469 2.325-.792 2.443-.762.118.058 1.03 1.114 2.03 2.346 5.739 7.243 15.538 11.29 24.72 10.234 7.827-.909 14.683-4.692 19.186-10.586 1.765-2.317 1.56-2.258 4.679-1.085l1.765.645-1.324 1.994c-1.354 1.994-4.267 5.073-7.18 7.595-1.472 1.261-1.56 1.437-1.383 2.346.206 1.115 1.118 1.994 2.089 1.994 1.648 0 7.269-5.337 10.3-9.794.941-1.379 1.824-2.522 1.942-2.522.47 0 11.653 4.047 12.771 4.633 2.825 1.437 5.032 4.252 5.885 7.537.354 1.407.442 3.695.442 11.818v10.059l.736.703c.912.939 2.03.939 2.942 0l.736-.703v-10.206c0-11.554-.177-12.844-1.972-16.305-1.236-2.375-3.913-5.249-6.032-6.481-.765-.439-2.619-1.261-4.12-1.788-3.06-1.085-3.09-.968.5-2.083 3.119-.967 5.444-3.9 5.444-6.803 0-.528-.588-2.757-1.324-5.015-2.619-8.21-4.355-15.806-5.415-24.135-.971-7.448-1.206-11.847-1.206-23.753 0-6.305-.147-12.698-.324-14.37-2-18.416-15.861-33.46-34.165-37.038C62.461.705 54.928.47 52.044.881zm13.39 4.927C78.44 8.77 88.768 17.801 93.211 30.118c1.472 4.135 1.972 7.332 2.149 14.194.088 3.519.088 6.393 0 6.393-.089 0-.53-.147-1.001-.352-.5-.206-3.796-.41-8.328-.528-6.415-.176-8.033-.323-11.212-.968-10.888-2.258-19.98-7.595-26.366-15.513-.883-1.144-1.883-2.053-2.296-2.17-.882-.206-2.118.498-2.5 1.437-.119.352-.678 1.73-1.178 3.05-3.384 8.71-10.093 14.134-17.509 14.164-1.942 0-3.178.205-4.826.733l-.706.205.176-6.393c.177-6.92.677-10.117 2.148-14.252C26.678 16.54 38.743 6.98 53.368 5.133c2.325-.294 9.623.117 12.065.674zm-16.686 34.37c4.444 4.34 10.3 8.094 16.038 10.264 1 .38 1.824.762 1.824.85 0 .088-.53.499-1.147.939-1.266.909-2.207 2.55-1.913 3.372.647 1.789 2.442 2.082 4.031.674.56-.469 1.354-.997 1.795-1.173 1.148-.41 2.796.088 3.855 1.173.648.675 1.119.88 1.913.88 1.501 0 2.148-.792 2.001-2.346-.088-1.114-.059-1.202.5-1.026.324.117 3.502.264 7.063.322 3.56.088 6.915.206 7.445.294 1.236.176 2.913 1.671 3.149 2.756.47 2.141-1.325 4.399-3.473 4.399-1.059 0-1.294-.117-1.736-.88-.618-1.085-1.736-1.554-2.737-1.173-.97.381-1.235 1.056-1.589 4.546-.735 7.038-3.384 12.639-8.24 17.478-11.181 11.143-29.19 11.085-40.344-.176-1.618-1.613-2.06-1.906-2.913-1.906-1.383 0-2.09.703-2.09 2.052 0 .998.236 1.32 2.59 3.549 1.413 1.349 3.384 2.991 4.385 3.636l1.854 1.173v5.719c-.03 9.003-.147 9.149-11.183 13.049l-7.21 2.522-4.972-1.7c-4.032-1.379-5.091-1.848-5.591-2.522-.677-.909-.736-.499 1.118-6.511 3.001-9.677 5.032-20.176 5.767-29.706.471-5.778.442-5.719 1.266-5.279.353.176 1.56.41 2.678.498l2.03.176.383 1.907c.559 2.727 1.589 5.747 2.295 6.832.824 1.203 2.472 1.437 3.384.528.824-.82.795-1.231-.382-4.78a26.282 26.282 0 01-1.354-6.246c-.383-3.783-.618-4.457-1.619-4.839-1-.381-2.118.088-2.736 1.173-.442.763-.677.88-1.766.88-2.501 0-4.237-2.815-3.149-5.103.736-1.495 2.384-2.228 5.209-2.228 4.326 0 9.21-1.79 12.83-4.722 1.648-1.32 2.06-1.495 5.415-2.287 2.678-.645 3.737-1.027 4.12-1.496.735-.909.647-1.965-.236-2.844-.618-.616-.941-.733-1.913-.587-.618.088-1.147.088-1.147.03 0-.294 2.09-4.223 2.207-4.223.088 0 1.118.938 2.295 2.082zm47.26 30.322c.736 9.854 3.031 21.467 6.18 31.261.676 2.053 1.206 3.901 1.206 4.135 0 1.261-1.177 1.936-6.15 3.607l-4.944 1.642-7.18-2.551c-8.27-2.903-9.299-3.49-10.564-6.129-.5-1.026-.589-1.847-.589-6.891v-5.719l1.854-1.173c2.295-1.466 7.092-6.188 8.71-8.563 2.443-3.636 4.297-8.064 5.15-12.14l.383-1.877 2.03-.177c1.118-.087 2.296-.293 2.62-.469.823-.498.911-.146 1.294 5.044zM48.866 93.08c6.18 1.789 14.125 1.437 20.157-.88.442-.176.5.293.589 5.19.088 5.221.118 5.426.942 7.068 1 2.053 3.384 4.546 5.09 5.308l1.236.557-.618.909c-1.118 1.555-3.796 4.018-5.856 5.338-4.149 2.698-9.681 4.164-14.272 3.812-6.503-.469-12.771-3.607-16.685-8.299l-1.383-1.701 1.383-.674c1.825-.939 3.855-3.08 4.944-5.22.883-1.701.883-1.819.971-7.097.088-4.898.147-5.367.589-5.19.264.117 1.589.498 2.913.879z" fill="url(#paint0_linear_52_1943)"/><path d="M43.04 50.734c-1.767.264-2.473.645-4.003 2.111-1 .939-1.265 1.408-1.265 2.17 0 2.141 2.413 2.904 3.972 1.261 1.06-1.085 2.708-1.583 3.855-1.173.442.176 1.236.704 1.795 1.173 2.62 2.288 5.327-.293 3.237-3.05-1.471-1.876-4.678-2.961-7.592-2.492z" fill="url(#paint1_linear_52_1943)"/><path d="M41.921 65.543c-.765.968-.765 1.555.059 3.96 2.354 6.89 8.269 11.172 15.508 11.172 3.296 0 5.68-.645 8.504-2.316 3.532-2.112 6.563-6.305 7.387-10.235.323-1.495.294-1.73-.236-2.434l-.559-.762-15.037-.088-15.008-.059-.618.762zm26.455 3.842c0 .499-1.972 3.167-3.031 4.076-4.62 3.93-11.33 3.842-15.95-.205-.882-.792-2.795-3.431-2.795-3.87 0-.118 4.914-.206 10.888-.206s10.888.088 10.888.205z" fill="url(#paint2_linear_52_1943)"/></g><defs><linearGradient id="paint0_linear_52_1943" x1="57.488" y1=".674" x2="57.488" y2="150.675" gradientUnits="userSpaceOnUse"><stop stop-color="#A4AB9B"/><stop offset="1" stop-color="#FFA384"/></linearGradient><linearGradient id="paint1_linear_52_1943" x1="44.574" y1="50.625" x2="44.574" y2="57.164" gradientUnits="userSpaceOnUse"><stop stop-color="#A4AB9B"/><stop offset="1" stop-color="#FFA384"/></linearGradient><linearGradient id="paint2_linear_52_1943" x1="57.471" y1="64.781" x2="57.471" y2="80.675" gradientUnits="userSpaceOnUse"><stop stop-color="#A4AB9B"/><stop offset="1" stop-color="#FFA384"/></linearGradient><clipPath id="clip0_52_1943"><path fill="#fff" transform="translate(.988 .675)" d="M0 0h113v150H0z"/></clipPath></defs></svg>