<svg width="154" height="151" fill="none" xmlns="http://www.w3.org/2000/svg"><g clip-path="url(#clip0_52_1948)"><path d="M68.634.994c-.479.15-1.287.688-1.795 1.167l-.928.897-11.219.09-11.219.09-1.675.777c-2.154 1.017-4.01 2.872-5.026 5.026l-.778 1.675-.09 26.771-.09 26.802-2.154.33c-1.855.298-2.273.478-3.081 1.375-2.543 2.782-2.005 10.769 1.017 15.286.539.777.957 1.495.957 1.615 0 .12-.628.449-1.406.718-3.59 1.286-5.175 3.021-4.248 4.696.808 1.436 1.795 1.466 4.278.24 1.257-.599 3.022-1.317 3.95-1.556 1.675-.419 1.764-.419 3.23.299 2.424 1.167 4.847 1.675 7.839 1.615 2.932-.06 3.23.06 5.654 1.765 1.945 1.376 2.872 1.376 4.817-.03 1.944-1.406 5.475-3.05 7.748-3.65 2.274-.567 6.702-.567 8.975 0 .988.27 2.663.898 3.74 1.407 2.603 1.286 6.642 5.264 8.257 8.166 4.338 7.837 4.847 18.067 1.347 27.609-3.112 8.525-9.813 15.645-17.143 18.217-2.992 1.047-7.39 1.286-10.89.539-2.453-.509-2.543-.569-2.992-1.616-.299-.718-6.133-6.76-18.07-18.725l-17.65-17.648.627-2.334c.36-1.286 1.227-3.5 1.945-4.905.718-1.406 1.316-2.812 1.316-3.141 0-.778-1.316-2.034-2.154-2.034-.389 0-1.017.21-1.376.478-.748.509-2.333 3.5-3.35 6.342l-.689 1.884-2.722-2.692c-2.124-2.064-2.992-2.722-3.86-2.871-2.183-.42-4.517.538-5.594 2.303-.748 1.226-2.184 5.653-2.723 8.465-.628 3.111-.538 10.739.15 13.91 3.261 15.135 14.54 26.472 29.499 29.643 4.038.867 10.53.927 14.45.15 2.991-.569 7.3-1.975 8.346-2.693.838-.598 1.766-.598 4.339 0 2.961.688 9.094.419 11.757-.508l1.945-.718 37.097-.15c28.661-.119 37.337-.239 38.204-.538 1.736-.598 3.86-2.214 4.937-3.769 2.034-2.961 1.885 2.064 1.825-67.812l-.09-63.235-.987-2.005c-1.107-2.273-2.454-3.589-4.847-4.696l-1.645-.778-11.13-.09-11.129-.089-.927-.867c-.539-.48-1.436-1.017-2.035-1.197-1.585-.419-29.708-.419-30.665.03-.748.329-1.406 1.406-1.406 2.243 0 .24.33.778.748 1.167l.718.748h14.63c10.949 0 14.689.09 14.958.359.269.269.359 2.124.359 6.52 0 5.295-.09 6.282-.568 7.33-.658 1.495-2.065 2.721-3.56 3.14-1.526.419-41.376.419-42.902 0-1.346-.389-2.782-1.525-3.47-2.812-.419-.777-.509-2.004-.599-7.298-.09-4.667-.03-6.491.24-6.79.299-.36 1.466-.45 6.252-.45 5.804 0 5.924 0 6.552-.687.868-.927.838-2.154-.09-3.051-.478-.499-2.742-.738-6.79-.718-3.351 0-6.463.15-6.941.269zm-3.77 9.273v2.662l-8.197.09c-7.749.09-8.258.12-9.065.718-1.915 1.406-1.915 1.286-1.825 16.003.09 12.653.12 13.401.658 14 .658.747 2.184.837 3.052.209.538-.42.568-.987.718-13.401l.15-12.952 7.15-.09c5.105-.06 7.658.419 7.658 1.436 0 1.196 1.616 4.247 2.872 5.444.659.598 1.975 1.495 2.962 1.944l1.795.838 21.361.09c15.757.06 24.572-.55 26.447-1.825 1.915-1.287 3.68-3.919 4.129-6.222l.359-1.765h14.569l-.06 57.043-.089 57.074-25.49.09c-17.382.029-25.52-.03-25.52-.24 0-.179.45-1.226 1.018-2.333 4.248-8.465 5.206-19.623 2.393-28.477-2.423-7.687-7.24-13.61-13.433-16.482-3.32-1.525-5.744-2.064-9.453-2.064-4.1 0-7.809.898-11.34 2.692l-1.196.599v-6.97c0-6.61-.03-7-.598-7.628-.808-.837-2.394-.867-3.142-.06-.299.33-.628 1.107-.718 1.706l-.179 1.136-.838-1.406-.807-1.406v-9.362c0-10.65 0-10.709-2.065-10.709-.778 0-1.316.21-1.705.628-.509.569-.568 1.256-.658 8.047l-.09 7.388-1.107-.568c-.598-.3-1.825-.778-2.663-1.047l-1.585-.509V38.475c0-22.913.06-26.264.449-27.25.628-1.467 1.555-2.424 2.991-3.082 1.077-.508 2.125-.568 11.16-.568h9.932v2.692zm82.183-1.735c.718.479 1.466 1.316 1.855 2.094l.628 1.316V74.52c0 51.899-.06 62.757-.419 63.565-.508 1.286-2.274 2.782-3.68 3.17-.778.21-11.787.33-33.268.33h-32.16l2.542-2.663 2.513-2.632 27.524-.06c17.083-.03 27.913-.149 28.601-.329.568-.149 1.436-.718 1.945-1.226l.867-.898.09-58.838c.06-56.595.03-58.868-.479-59.855-1.077-2.004-1.615-2.124-10.59-2.124h-8.018V7.545l10.411.09 10.441.09 1.197.807zM40.781 69.404c4.218 1.466 7.509 5.385 8.227 9.782.389 2.363.06 4.606-.688 5.025-.36.18-1.676.27-3.171.18-3.261-.15-5.894-1.287-8.108-3.53-2.244-2.214-3.38-4.846-3.53-8.107-.15-3.14.12-3.769 1.675-3.948 1.616-.15 4.218.12 5.595.598zm-25.7 36.912l6.343 6.342-.957 1.974c-.868 1.855-.928 2.184-.928 5.265 0 3.081.06 3.41.958 5.235 2.154 4.397 6.522 7.179 11.279 7.179 2.094 0 4.607-.658 6.103-1.556l1.017-.628 6.402 6.401c3.53 3.53 6.402 6.491 6.402 6.611 0 .897-5.325 2.483-9.902 2.961-6.044.628-12.057-.478-17.83-3.32C12 136.887 4.79 124.713 5.447 111.372c.21-4.756 1.915-11.367 2.932-11.367.21 0 3.231 2.842 6.702 6.311zm15.199 15.196c5.265 5.265 5.325 5.354 4.637 5.743-1.197.688-5.266.539-6.702-.239-2.722-1.436-4.308-4.098-4.338-7.149 0-1.765.45-3.709.868-3.709.09 0 2.603 2.423 5.535 5.354z" fill="url(#paint0_linear_52_1948)"/><path d="M63.159 35.693c-1.466.598-1.735 1.555-1.735 6.46 0 6.85.27 7.09 7.36 6.94l4.517-.09.868-.986.867-.958v-4.875c-.03-6.76-.06-6.79-6.791-6.76-2.423 0-4.727.12-5.086.269zm7.39 6.58v2.423l-2.304-.09-2.334-.09-.09-2.332-.09-2.303h4.818v2.392z" fill="url(#paint1_linear_52_1948)"/><path d="M82.575 40.867c-.867.928-.837 2.154.09 3.052l.718.747h21.541c15.138 0 21.749-.09 22.258-.329.748-.329 1.406-1.406 1.406-2.243 0-.24-.329-.778-.748-1.167l-.718-.748H83.204l-.629.688z" fill="url(#paint2_linear_52_1948)"/><path d="M62.68 58.426c-1.077.868-1.406 2.273-1.406 6.132 0 3.859.33 5.265 1.406 6.132.688.539 1.197.599 5.685.599H73.3l.868-.868.867-.867v-9.991l-.867-.868-.868-.867h-4.936c-4.488 0-4.996.06-5.685.598zm7.869 6.132v2.244h-4.787v-4.487h4.787v2.243z" fill="url(#paint3_linear_52_1948)"/><path d="M82.665 60.072c-.957.927-.987 2.213-.06 3.08l.688.659h43.829l.718-.748c.419-.39.748-.928.748-1.167 0-.837-.658-1.914-1.406-2.243-.509-.24-7.12-.33-22.258-.33h-21.54l-.719.748z" fill="url(#paint4_linear_52_1948)"/><path d="M83.234 74.4c-1.436.628-1.795 2.393-.718 3.47.598.598.987.598 22.707.598h22.139l.598-.778c.808-1.047.778-1.705-.09-2.722l-.718-.838-21.51-.06c-17.562-.06-21.66 0-22.408.33z" fill="url(#paint5_linear_52_1948)"/><path d="M100.945 91.66c-.988.777-1.077 2.362-.18 3.26.568.568.987.598 13.433.598s12.864-.03 13.523-.568c.508-.39.688-.868.688-1.675 0-.808-.18-1.287-.688-1.676-.659-.538-1.436-.568-13.344-.568-11.907 0-12.655.03-13.432.628z" fill="url(#paint6_linear_52_1948)"/><path d="M100.945 103.624c-.988.778-1.077 2.363-.18 3.261.568.568.987.598 13.583.598h13.014l.598-.778c.359-.448.628-.987.628-1.196 0-.778-.688-1.855-1.406-2.184-.479-.209-4.667-.329-13.074-.329-12.057 0-12.386.03-13.163.628z" fill="url(#paint7_linear_52_1948)"/><path d="M100.675 115.799c-.718.807-.658 2.542.12 3.23.598.539 1.256.569 13.493.569h12.864l.718-.838c.868-1.017.898-1.675.09-2.722l-.599-.778h-13.103c-12.326 0-13.134.03-13.583.539z" fill="url(#paint8_linear_52_1948)"/><path d="M81.17 12.51c-.42.39-.749 1.077-.749 1.496 0 .419.33 1.107.748 1.495l.718.748h12.984c12.685 0 13.014 0 13.792-.628.569-.449.778-.897.778-1.615s-.209-1.167-.778-1.615c-.778-.629-1.107-.629-13.792-.629H81.887l-.718.748z" fill="url(#paint9_linear_52_1948)"/></g><defs><linearGradient id="paint0_linear_52_1948" x1="77.486" y1=".684" x2="77.486" y2="150.683" gradientUnits="userSpaceOnUse"><stop stop-color="#A4AB9B"/><stop offset="1" stop-color="#FFA384"/></linearGradient><linearGradient id="paint1_linear_52_1948" x1="68.23" y1="35.42" x2="68.23" y2="49.121" gradientUnits="userSpaceOnUse"><stop stop-color="#A4AB9B"/><stop offset="1" stop-color="#FFA384"/></linearGradient><linearGradient id="paint2_linear_52_1948" x1="105.267" y1="40.179" x2="105.267" y2="44.666" gradientUnits="userSpaceOnUse"><stop stop-color="#A4AB9B"/><stop offset="1" stop-color="#FFA384"/></linearGradient><linearGradient id="paint3_linear_52_1948" x1="68.155" y1="57.828" x2="68.155" y2="71.289" gradientUnits="userSpaceOnUse"><stop stop-color="#A4AB9B"/><stop offset="1" stop-color="#FFA384"/></linearGradient><linearGradient id="paint4_linear_52_1948" x1="105.258" y1="59.324" x2="105.258" y2="63.811" gradientUnits="userSpaceOnUse"><stop stop-color="#A4AB9B"/><stop offset="1" stop-color="#FFA384"/></linearGradient><linearGradient id="paint5_linear_52_1948" x1="105.217" y1="74.05" x2="105.217" y2="78.468" gradientUnits="userSpaceOnUse"><stop stop-color="#A4AB9B"/><stop offset="1" stop-color="#FFA384"/></linearGradient><linearGradient id="paint6_linear_52_1948" x1="114.277" y1="91.031" x2="114.277" y2="95.518" gradientUnits="userSpaceOnUse"><stop stop-color="#A4AB9B"/><stop offset="1" stop-color="#FFA384"/></linearGradient><linearGradient id="paint7_linear_52_1948" x1="114.366" y1="102.996" x2="114.366" y2="107.483" gradientUnits="userSpaceOnUse"><stop stop-color="#A4AB9B"/><stop offset="1" stop-color="#FFA384"/></linearGradient><linearGradient id="paint8_linear_52_1948" x1="114.358" y1="115.26" x2="114.358" y2="119.598" gradientUnits="userSpaceOnUse"><stop stop-color="#A4AB9B"/><stop offset="1" stop-color="#FFA384"/></linearGradient><linearGradient id="paint9_linear_52_1948" x1="94.931" y1="11.762" x2="94.931" y2="16.249" gradientUnits="userSpaceOnUse"><stop stop-color="#A4AB9B"/><stop offset="1" stop-color="#FFA384"/></linearGradient><clipPath id="clip0_52_1948"><path fill="#fff" transform="translate(.988 .683)" d="M0 0h153v150H0z"/></clipPath></defs></svg>