<svg width="200" height="153" fill="none" xmlns="http://www.w3.org/2000/svg"><g opacity=".2" clip-path="url(#clip0_77_3006)" fill-rule="evenodd" clip-rule="evenodd"><path opacity=".89" d="M99.61 0c2.988.38 4.16 2.115 3.515 5.207.445 4.085-1.25 5.555-5.078 4.406-.324-.401-.652-.801-.977-1.202a17.985 17.985 0 01.391-7.21C98.195.758 98.911.357 99.61 0z" fill="url(#paint0_linear_77_3006)"/><path opacity=".88" d="M73.438 7.21c2.003-.43 3.503.236 4.492 2.002a14.452 14.452 0 001.562 2.804c.703 2.7-.273 4.301-2.93 4.806-1.28-.22-2.257-.89-2.93-2.003a17.237 17.237 0 01-2.148-4.405c.09-1.474.739-2.544 1.954-3.205z" fill="url(#paint1_linear_77_3006)"/><path opacity=".89" d="M123.828 7.21c2.551-.501 4.113.5 4.688 3.003a20.623 20.623 0 01-2.735 5.407c-1.496 1.502-3.058 1.566-4.687.2-.528-.628-.785-1.365-.781-2.202.582-2.532 1.753-4.666 3.515-6.409z" fill="url(#paint2_linear_77_3006)"/><path opacity=".94" d="M200 104.937v43.257c-1.203 2.499-3.156 4.033-5.859 4.606-51.563.268-103.125.268-154.688 0-1.629-.393-2.41-1.462-2.344-3.204-.078-1.31.442-2.247 1.563-2.804 7.031-.2 14.062-.268 21.094-.2-.067-10.414 0-20.828.195-31.241 1.559-2.868 3.512-3.136 5.86-.801.195 10.682.261 21.36.195 32.042H75c.066-13.35 0-26.703-.195-40.053-1.446-6.02-5.157-9.556-11.133-10.614-15.363-.268-30.73-.268-46.094 0-6.976 1.41-10.816 5.752-11.523 13.017a846.076 846.076 0 000 36.448c.144.369.34.701.586 1.001 2.73.201 5.464.269 8.203.201-.067-10.414 0-20.828.195-31.241 1.559-2.868 3.512-3.136 5.86-.801.195 10.682.261 21.36.195 32.042 2.347-.068 4.691 0 7.031.2 2.336 2.575 1.945 4.578-1.172 6.008-7.031.268-14.062.268-21.094 0-2.703-.573-4.656-2.107-5.859-4.606v-43.257c2.105-7.698 6.922-12.704 14.453-15.02a94.036 94.036 0 019.375-.8c-7.781-8.035-9.863-17.447-6.25-28.237a130.425 130.425 0 00-3.71-8.812c-.177-3.288 1.32-4.558 4.491-3.805a17.43 17.43 0 013.32 5.808c3.505-4.19 7.868-6.993 13.087-8.411l-7.227-14.82c-4.035-4.273-8.074-4.273-12.11 0-1.378 2.387-1.702 4.927-.976 7.61-1.3 3.509-3.32 4.046-6.055 1.602-2.074-9.88 1.637-16.089 11.133-18.624 5.883-.557 10.508 1.646 13.867 6.609a491.487 491.487 0 018.008 16.822c15.754 2.399 23.7 11.747 23.828 28.036 5.602.068 11.2 0 16.797-.2C73.671 65.41 70.22 56.133 71.68 44.86 75.234 29.53 84.676 21.384 100 20.427c15.324.957 24.762 9.104 28.32 24.432 1.461 11.274-1.992 20.55-10.351 27.836 5.597.2 11.195.268 16.797.2.14-16.301 8.082-25.645 23.828-28.036a489.614 489.614 0 018.008-16.822c5.742-7.398 12.578-8.668 20.507-3.805 4.344 3.885 5.973 8.755 4.883 14.619-3.191 7.345-6.383 14.687-9.57 22.029 3.613 10.79 1.531 20.202-6.25 28.237 12.156-1.126 20.098 4.149 23.828 15.82zM96.875 26.835c13.199-.408 21.598 5.868 25.195 18.825 1.219 12.933-4.054 21.676-15.82 26.234-12.574 2.6-21.625-2.007-27.148-13.818-3.754-13.726.605-23.671 13.085-29.839 1.61-.477 3.172-.945 4.688-1.402zm80.469.801c6.953.52 9.621 4.258 8.008 11.215l-7.032 15.22c-3.504-4.19-7.867-6.993-13.086-8.411l7.227-14.82c1.32-1.638 2.949-2.707 4.883-3.204zM37.109 51.668c7.899-.858 14.211 1.946 18.946 8.41 4.203 7.747 3.812 15.22-1.172 22.43-7.746 7.902-16.274 8.904-25.586 3.004-6.867-6.204-8.754-13.746-5.664-22.63 2.832-5.911 7.324-9.648 13.476-11.214zm119.141 0c8.434-.918 14.879 2.287 19.336 9.612 4.316 9.997 2.301 18.34-6.055 25.033-7.547 4.322-14.84 3.921-21.875-1.202-7.347-7.37-8.586-15.712-3.711-25.032 3.055-4.466 7.157-7.27 12.305-8.411zM63.672 79.304c24.219-.132 48.437 0 72.656.4 1.457 3.589 3.539 6.725 6.25 9.413-18.18.224-26.058 9.636-23.633 28.236 1.168 1.691 2.668 2.159 4.493 1.402a4.598 4.598 0 001.367-1.802c.129-3.605.261-7.209.39-10.814 1.328-4.967 4.391-8.239 9.18-9.813 16-.657 32.016-.79 48.047-.4 5.625.96 9.336 4.233 11.133 9.812.629 13.206.757 26.423.39 39.652-.144.369-.34.701-.586 1.001a83.44 83.44 0 01-8.203.201c.067-10.414 0-20.828-.195-31.241-1.559-2.868-3.512-3.136-5.859-.801-.196 10.682-.262 21.36-.196 32.042h-38.672c.067-10.414 0-20.828-.195-31.241-1.559-2.868-3.512-3.136-5.859-.801-.196 10.682-.262 21.36-.196 32.042H125c.066-5.876 0-11.752-.195-17.623-1.278-2.099-3.035-2.564-5.274-1.402-.246.3-.441.633-.586 1.001a415.02 415.02 0 00-.195 18.024h-37.5a807.769 807.769 0 00-.586-42.856c-2.187-7.182-6.808-11.788-13.867-13.818a94.036 94.036 0 00-9.375-.801c2.82-2.78 4.902-6.052 6.25-9.813z" fill="url(#paint3_linear_77_3006)"/><path opacity=".88" d="M55.078 26.034c2.55.204 4.828 1.137 6.836 2.804 1.25 3.909-.117 5.579-4.102 5.006a66.638 66.638 0 01-4.101-2.603c-1.047-2.2-.59-3.933 1.367-5.207z" fill="url(#paint4_linear_77_3006)"/><path opacity=".88" d="M142.578 26.034c3.715-.12 4.953 1.614 3.711 5.207-2.016 2.07-4.426 2.94-7.227 2.603-1.75-1.466-2.007-3.2-.781-5.207a902.566 902.566 0 004.297-2.603z" fill="url(#paint5_linear_77_3006)"/></g><defs><linearGradient id="paint0_linear_77_3006" x1="100.086" y1="0" x2="100.086" y2="9.991" gradientUnits="userSpaceOnUse"><stop stop-color="#FFA384"/><stop offset="1" stop-color="#A4AB9B"/></linearGradient><linearGradient id="paint1_linear_77_3006" x1="75.599" y1="7.083" x2="75.599" y2="16.822" gradientUnits="userSpaceOnUse"><stop stop-color="#FFA384"/><stop offset="1" stop-color="#A4AB9B"/></linearGradient><linearGradient id="paint2_linear_77_3006" x1="124.414" y1="7.084" x2="124.414" y2="16.798" gradientUnits="userSpaceOnUse"><stop stop-color="#FFA384"/><stop offset="1" stop-color="#A4AB9B"/></linearGradient><linearGradient id="paint3_linear_77_3006" x1="100" y1="20.427" x2="100" y2="153.001" gradientUnits="userSpaceOnUse"><stop stop-color="#FFA384"/><stop offset="1" stop-color="#A4AB9B"/></linearGradient><linearGradient id="paint4_linear_77_3006" x1="57.763" y1="26.034" x2="57.763" y2="33.954" gradientUnits="userSpaceOnUse"><stop stop-color="#FFA384"/><stop offset="1" stop-color="#A4AB9B"/></linearGradient><linearGradient id="paint5_linear_77_3006" x1="142.138" y1="26.028" x2="142.138" y2="33.915" gradientUnits="userSpaceOnUse"><stop stop-color="#FFA384"/><stop offset="1" stop-color="#A4AB9B"/></linearGradient><clipPath id="clip0_77_3006"><path fill="#fff" d="M0 0h200v153H0z"/></clipPath></defs></svg>